name processed_emg_signals
nRows=53
nColumns=7
 
endheader
time	RGLTMED	RRF	RADDLONG	RBF	RTA	RGM
20.949999999999886	0.0092979736863525	0.0299193733583851	0.0102658038541997	0.3009017972847515	0.9999077145349348	0.0629846816983243
20.959999999999887	0.0092713245145565	0.0298134694005411	0.0102099121938564	0.3009911572455749	1.0	0.0626320962561561
20.969999999999885	0.009245106451185	0.0297024967023728	0.0101549600900896	0.3009045237917805	0.9996173307208794	0.0622558529954155
20.979999999999887	0.0092193114752548	0.0295866105666318	0.0101009702738919	0.3006418818439748	0.9987618458121122	0.061856520265952
20.989999999999885	0.0091939318943072	0.0294659725339696	0.0100479649424702	0.3002035203506354	0.9974365011297402	0.061434704419417
20.999999999999886	0.0091689603899587	0.0293407501494624	0.0099959657427336	0.2995900264917794	0.9956450589382247	0.0609910481922835
21.009999999999884	0.0091443900600174	0.0292111167197015	0.0099449937536877	0.2988022793044605	0.9933920757246858	0.0605262290279598
21.019999999999886	0.0091202144570458	0.0290772510608905	0.0098950694679132	0.297841442770269	0.99068288822429	0.0600409573440165
21.029999999999884	0.0090964276232826	0.0289393372383536	0.0098462127723033	0.2967089584044298	0.9875235977245428	0.0595359747505158
21.039999999999885	0.0090730241218557	0.0287975642978057	0.0097984429282263	0.2954065373854492	0.9839210527181418	0.0590120522253578
21.049999999999883	0.0090499990642405	0.028652125988669	0.0097517785512839	0.293936152263524	0.9798828299762888	0.0584699882524675
21.059999999999885	0.0090273481339489	0.0285032204796811	0.0097062375908283	0.2923000282850835	0.9754172141180906	0.0579106069285257
21.069999999999883	0.009005067606458	0.0283510500670122	0.0096618373094029	0.2905006343698974	0.9705331757560866	0.0573347560437974
21.079999999999885	0.0089831543654197	0.0281958208751386	0.0096185942622626	0.2885406737762199	0.9652403483017972	0.0567433051424514
21.089999999999883	0.0089616059152076	0.0280377425507555	0.0095765242771269	0.2864230744884172	0.9595490035183004	0.0561371435675651
21.099999999999884	0.0089404203898942	0.0278770279500766	0.0095356424343166	0.2841509793604757	0.9534700259096008	0.0555171784958098
21.109999999999882	0.008919596558757	0.0277138928199116	0.0094959630474136	0.2817277360477002	0.9470148860387704	0.0548843329666091
21.119999999999884	0.0088991338284403	0.0275485554729531	0.0094574996445733	0.279156886757802	0.9401956128680228	0.0542395439103637
21.12999999999988	0.0088790322418923	0.027381236457732	0.0094202649505977	0.276442157851479	0.93302476521405	0.0535837601801527
21.139999999999883	0.008859292474205	0.027212158223746	0.0093842708698586	0.2735874493214962	0.9255154024116314	0.0529179405911366
21.14999999999988	0.0088399158254881	0.0270415447823173	0.0093495284701411	0.2705968241781951	0.9176810542778546	0.0522430519717045
21.159999999999883	0.0088209042109169	0.0268696213637658	0.0093160479674668	0.2674744977682861	0.9095356904680848	0.0515600672302259
21.16999999999988	0.0088022601481172	0.0266966140714839	0.009283838711945	0.2642248270526895	0.9010936893130792	0.050869963441089
21.179999999999882	0.008783986742055	0.0265227495334573	0.009252909174696	0.2608522998681041	0.8923698062247031	0.050173719953533
21.18999999999988	0.0087660876676042	0.0263482545517383	0.0092232669358893	0.2573615241959063	0.8833791417556679	0.0494723165266249
21.199999999999882	0.0087485671499522	0.0261733557503311	0.0091949186739331	0.2537572174609346	0.8741371093964796	0.0487667314935646
21.20999999999988	0.0087314299430026	0.0259982792219488	0.0091678701558414	0.2500441958816803	0.8646594031902135	0.048057939958357
21.21999999999988	0.0087146813059285	0.0258232501741368	0.0091421262287992	0.2462273638924002	0.8549619652429916	0.0473469120277368
21.22999999999988	0.008698326978031	0.025648492575359	0.0091176908129317	0.2423117036566901	0.8450609532051977	0.046634611081077
21.23999999999988	0.0086823731520707	0.0254742288017458	0.0090945668952781	0.2383022646911323	0.8349727077955559	0.0459219920808556
21.24999999999988	0.0086668264462471	0.0253006792852806	0.0090727565249616	0.2342041536167447	0.8247137204372341	0.0452099999260949
21.25999999999988	0.0086516938750294	0.025128062164245	0.0090522608095461	0.2300225240550965	0.8143006010722045	0.0444995678510238
21.26999999999988	0.0086369828190331	0.0249565929367477	0.0090330799125704	0.2257625666850885	0.8037500462172223	0.0437916158710616
21.27999999999988	0.0086227009941506	0.0247864841181758	0.009015213052263	0.221429499475526	0.7930788073220068	0.0430870492780885
21.28999999999988	0.0086088564201111	0.0246179449034117	0.0089986585014528	0.2170285581077257	0.7823036594874306	0.0423867571868525
21.29999999999988	0.0085954573886429	0.0244511808346571	0.0089834135886966	0.2125649866015143	0.7714413705988176	0.0416916111342438
21.309999999999878	0.0085825124313812	0.0242863934757013	0.0089694747006375	0.2080440281570927	0.7605086709267629	0.0410024637330499
21.31999999999988	0.0085700302876581	0.0241237800934353	0.008956837285594	0.2034709162243638	0.7495222232452695	0.0403201473816714
21.329999999999878	0.0085580198722869	0.0239635333473887	0.0089454958583678	0.1988508658104588	0.738498593514372	0.0396454730311423
21.33999999999988	0.0085464902434463	0.0238058409880273	0.0089354440062462	0.1941890650353506	0.7274542221718335	0.0389792290106684
21.349999999999877	0.0085354505707479	0.0236508855644997	0.0089266743961734	0.1894906669446147	0.7164053960760358	0.0383221799127666
21.35999999999988	0.0085249101035643	0.0234988441424792	0.0089191787830624	0.1847607815875939	0.705368221139743	0.0376750655389584
21.369999999999877	0.0085148781396723	0.0233498880326898	0.0089129480192253	0.1800044683684451	0.6943585956920175	0.0370385999068415
21.379999999999878	0.0085053639942531	0.023204182530651	0.008907972064909	0.1752267286767949	0.6833921846032096	0.0364134703192192
21.389999999999876	0.0084963769692717	0.0230618866681119	0.0089042399999228	0.1704324988040201	0.6724843942056995	0.0358003364958347
21.399999999999878	0.0084879263232537	0.0229231529765843	0.0089017400363554	0.1656266431504787	0.661650348040916	0.0351998297681157
21.409999999999876	0.0084800212414653	0.0227881272633364	0.0089004595323565	0.1608139477283496	0.6509048634610385	0.0346125523372212
21.419999999999877	0.0084726708065082	0.0226569484001853	0.0089003850069539	0.1559991139640766	0.6402624291117053	0.0340390765955851
21.429999999999875	0.0084658839693384	0.0225297481254422	0.0089015021558618	0.1511867528037581	0.6297371833200168	0.0334799445120672
21.439999999999877	0.0084596695207112	0.0224066508593996	0.0089037958682338	0.1463813791241618	0.6193428934101856	0.0329356670807501
21.449999999999875	0.008454036063056	0.0222877735337879	0.008907250244316	0.1415874064514101	0.6090929359672534	0.032406723833323
21.459999999999877	0.0084489919827802	0.0221732254356317	0.0089118486139576	0.1368091419887486	0.599000278067428	0.0318935624149037
21.469999999999875	0.0084445454230073	0.0220631080659217	0.008917573555935	0.1320507819542039	0.5890774594917542	0.0313965982230341
